<svg id="SvgjsSvg1001" width="288" height="288" xmlns="http://www.w3.org/2000/svg" version="1.1" xmlns:xlink="http://www.w3.org/1999/xlink" xmlns:svgjs="http://svgjs.com/svgjs"><defs id="SvgjsDefs1002"></defs><g id="SvgjsG1008"><svg xmlns="http://www.w3.org/2000/svg" viewBox="0 0 1440 320" width="288" height="288"><path fill="#c7d3d4" d="M0,32L40,74.7C80,117,160,203,240,234.7C320,267,400,245,480,234.7C560,224,640,224,720,213.3C800,203,880,181,960,154.7C1040,128,1120,96,1200,80C1280,64,1360,64,1400,64L1440,64L1440,0L1400,0C1360,0,1280,0,1200,0C1120,0,1040,0,960,0C880,0,800,0,720,0C640,0,560,0,480,0C400,0,320,0,240,0C160,0,80,0,40,0L0,0Z" class="colorf50 svgShape"></path></svg></g></svg>