<?xml version="1.0" encoding="UTF-8" standalone="no" ?>
<!DOCTYPE svg PUBLIC "-//W3C//DTD SVG 1.1//EN" "http://www.w3.org/Graphics/SVG/1.1/DTD/svg11.dtd">
<svg xmlns="http://www.w3.org/2000/svg" xmlns:xlink="http://www.w3.org/1999/xlink" version="1.1" width="288" height="288" viewBox="0 0 288 288" xml:space="preserve">
<desc>Created with Fabric.js 4.6.0</desc>
<defs>
</defs>
<g transform="matrix(1 0 0 1 11.65 24.54)" id="Pt8p7MxUYIjNsAS75k0M3"  >
<g style="opacity: 0.3;" vector-effect="non-scaling-stroke"   >
		<g transform="matrix(0.56 0 0 0.56 -101.3 -10)" id="77S4UJQkYlZUF67SWsP52"  >
<path style="stroke: none; stroke-width: 1; stroke-dasharray: none; stroke-linecap: butt; stroke-dashoffset: 0; stroke-linejoin: miter; stroke-miterlimit: 4; fill: rgb(72,47,247); fill-rule: nonzero; opacity: 1;" vector-effect="non-scaling-stroke"  transform=" translate(-670.96, -361)" d="Q     L   M 884 552 C 876.27 500.49 859 496 845.72 470 C 833.63 446.35 823.88 407.66 858 380 C 911 337 976 381 976 381 C 976 381 1079 440 1097 443 C 1115 446 1159 476 1214 440 C 1269 404 1316 407 1331 434 C 1346 461 1312 539 1304 555 C 1296 571 1308 621 1321 641 C 1334 661 1375 723 1287 721 C 1199 719 935 722 935 722 C 935 722 840.23 720.23 857 628 C 871 551 887 572 884 552 Z" stroke-linecap="round" />
</g>
		<g transform="matrix(0.56 0 0 0.56 223.21 90.97)" id="z1_G2YSztN836Pd61sLi_"  >
<path style="stroke: none; stroke-width: 1; stroke-dasharray: none; stroke-linecap: butt; stroke-dashoffset: 0; stroke-linejoin: miter; stroke-miterlimit: 4; fill: rgb(70,195,219); fill-rule: nonzero; opacity: 1;" vector-effect="non-scaling-stroke"  transform=" translate(-20, -20)" d="M 0 20 C 0 8.95431 8.95431 0 20 0 C 31.04569 0 40 8.95431 40 20 C 40 31.04569 31.04569 40 20 40 C 8.95431 40 0 31.04569 0 20 z" stroke-linecap="round" />
</g>
		<g transform="matrix(0.56 0 0 0.56 223.21 90.97)" id="Vxu7G3yNMSTovUVQhTyYs"  >
<path style="stroke: none; stroke-width: 1; stroke-dasharray: none; stroke-linecap: butt; stroke-dashoffset: 0; stroke-linejoin: miter; stroke-miterlimit: 4; fill: rgb(70,195,219); fill-rule: nonzero; opacity: 1;" vector-effect="non-scaling-stroke"  transform=" translate(-13.5, -13.5)" d="M 0 13.5 C 0 6.04416 6.04416 0 13.5 0 C 20.955840000000002 0 27 6.04416 27 13.5 C 27 20.955840000000002 20.955840000000002 27 13.5 27 C 6.04416 27 0 20.955840000000002 0 13.5 z" stroke-linecap="round" />
</g>
		<g transform="matrix(0.56 0 0 0.56 223.21 90.97)" id="YwAjNxEYdamasRa-OBnMm"  >
<path style="stroke: none; stroke-width: 1; stroke-dasharray: none; stroke-linecap: butt; stroke-dashoffset: 0; stroke-linejoin: miter; stroke-miterlimit: 4; fill: rgb(70,195,219); fill-rule: nonzero; opacity: 1;" vector-effect="non-scaling-stroke"  transform=" translate(-7.5, -7.5)" d="M 0 7.5 C 0 3.3578599999999996 3.35786 0 7.5 0 C 11.642140000000001 0 15 3.35786 15 7.5 C 15 11.642140000000001 11.64214 15 7.5 15 C 3.3578599999999996 15 0 11.64214 0 7.5 z" stroke-linecap="round" />
</g>
		<g transform="matrix(0.56 0 0 0.56 223.21 90.97)" id="ZJtWSl25p0BzQfNbWvzQL"  >
<path style="stroke: none; stroke-width: 1; stroke-dasharray: none; stroke-linecap: butt; stroke-dashoffset: 0; stroke-linejoin: miter; stroke-miterlimit: 4; fill: rgb(70,195,219); fill-rule: nonzero; opacity: 1;" vector-effect="non-scaling-stroke"  transform=" translate(-20, -20)" d="M 0 20 C 0 8.95431 8.95431 0 20 0 C 31.04569 0 40 8.95431 40 20 C 40 31.04569 31.04569 40 20 40 C 8.95431 40 0 31.04569 0 20 z" stroke-linecap="round" />
</g>
		<g transform="matrix(0.56 0 0 0.56 223.21 90.97)" id="clfQXroBH3G4K5CsZzrzo"  >
<path style="stroke: none; stroke-width: 1; stroke-dasharray: none; stroke-linecap: butt; stroke-dashoffset: 0; stroke-linejoin: miter; stroke-miterlimit: 4; fill: rgb(70,195,219); fill-rule: nonzero; opacity: 1;" vector-effect="non-scaling-stroke"  transform=" translate(-7.5, -7.5)" d="M 0 7.5 C 0 3.3578599999999996 3.35786 0 7.5 0 C 11.642140000000001 0 15 3.35786 15 7.5 C 15 11.642140000000001 11.64214 15 7.5 15 C 3.3578599999999996 15 0 11.64214 0 7.5 z" stroke-linecap="round" />
</g>
		<g transform="matrix(0.56 0 0 0.56 223.21 90.97)" id="uw6WunDfg_rxke3FXnLO7"  >
<path style="stroke: none; stroke-width: 1; stroke-dasharray: none; stroke-linecap: butt; stroke-dashoffset: 0; stroke-linejoin: miter; stroke-miterlimit: 4; fill: rgb(243,241,105); fill-rule: nonzero; opacity: 1;" vector-effect="non-scaling-stroke"  transform=" translate(-35.5, -35.5)" d="M 0 35.5 C 0 15.893889999999999 15.89389 0 35.5 0 C 55.10611 0 71 15.89389 71 35.5 C 71 55.10611 55.10611 71 35.5 71 C 15.893889999999999 71 0 55.10611 0 35.5 z" stroke-linecap="round" />
</g>
		<g transform="matrix(0.56 0 0 0.56 223.21 90.97)" id="eU6rVeEypIgE_JaZ9XMLA"  >
<path style="stroke: none; stroke-width: 1; stroke-dasharray: none; stroke-linecap: butt; stroke-dashoffset: 0; stroke-linejoin: miter; stroke-miterlimit: 4; fill: rgb(243,241,105); fill-rule: nonzero; opacity: 1;" vector-effect="non-scaling-stroke"  transform=" translate(-24, -24)" d="M 0 24 C 0 10.74517 10.74517 0 24 0 C 37.25483 0 48 10.74517 48 24 C 48 37.25483 37.25483 48 24 48 C 10.74517 48 0 37.25483 0 24 z" stroke-linecap="round" />
</g>
		<g transform="matrix(0.56 0 0 0.56 223.21 90.97)" id="YSqwpDyvZvvDce4zXahQR"  >
<path style="stroke: none; stroke-width: 1; stroke-dasharray: none; stroke-linecap: butt; stroke-dashoffset: 0; stroke-linejoin: miter; stroke-miterlimit: 4; fill: rgb(243,241,105); fill-rule: nonzero; opacity: 1;" vector-effect="non-scaling-stroke"  transform=" translate(-13, -13)" d="M 0 13 C 0 5.8203 5.8203 0 13 0 C 20.1797 0 26 5.8203 26 13 C 26 20.1797 20.1797 26 13 26 C 5.8203 26 0 20.1797 0 13 z" stroke-linecap="round" />
</g>
		<g transform="matrix(0.56 0 0 0.56 223.21 90.97)" id="_1JyMPLaYcVLJhedhSNX_"  >
<path style="stroke: none; stroke-width: 1; stroke-dasharray: none; stroke-linecap: butt; stroke-dashoffset: 0; stroke-linejoin: miter; stroke-miterlimit: 4; fill: rgb(243,241,105); fill-rule: nonzero; opacity: 1;" vector-effect="non-scaling-stroke"  transform=" translate(-26, -26)" d="M 0 26 C 0 11.6406 11.6406 0 26 0 C 40.3594 0 52 11.6406 52 26 C 52 40.3594 40.3594 52 26 52 C 11.6406 52 0 40.3594 0 26 z" stroke-linecap="round" />
</g>
		<g transform="matrix(0.56 0 0 0.56 223.21 90.97)" id="idTtjhhgYJxslW1mZFrfg"  >
<path style="stroke: none; stroke-width: 1; stroke-dasharray: none; stroke-linecap: butt; stroke-dashoffset: 0; stroke-linejoin: miter; stroke-miterlimit: 4; fill: rgb(243,241,105); fill-rule: nonzero; opacity: 1;" vector-effect="non-scaling-stroke"  transform=" translate(-12.5, -12.5)" d="M 0 12.5 C 0 5.59644 5.59644 0 12.5 0 C 19.40356 0 25 5.59644 25 12.5 C 25 19.40356 19.40356 25 12.5 25 C 5.59644 25 0 19.40356 0 12.5 z" stroke-linecap="round" />
</g>
		<g transform="matrix(0.56 0 0 0.56 223.21 90.97)" id="wx4v5AZycEm5-TB0_T4Nd"  >
<path style="stroke: none; stroke-width: 1; stroke-dasharray: none; stroke-linecap: butt; stroke-dashoffset: 0; stroke-linejoin: miter; stroke-miterlimit: 4; fill: rgb(243,241,105); fill-rule: nonzero; opacity: 1;" vector-effect="non-scaling-stroke"  transform=" translate(-12.5, -12.5)" d="M 0 12.5 C 0 5.59644 5.59644 0 12.5 0 C 19.40356 0 25 5.59644 25 12.5 C 25 19.40356 19.40356 25 12.5 25 C 5.59644 25 0 19.40356 0 12.5 z" stroke-linecap="round" />
</g>
		<g transform="matrix(0.56 0 0 0.56 223.21 90.97)" id="Jpg55VxaW3xP9vLelpgDR"  >
<path style="stroke: none; stroke-width: 1; stroke-dasharray: none; stroke-linecap: butt; stroke-dashoffset: 0; stroke-linejoin: miter; stroke-miterlimit: 4; fill: rgb(70,195,219); fill-rule: nonzero; opacity: 1;" vector-effect="non-scaling-stroke"  transform=" translate(-12.5, -12.5)" d="M 0 12.5 C 0 5.59644 5.59644 0 12.5 0 C 19.40356 0 25 5.59644 25 12.5 C 25 19.40356 19.40356 25 12.5 25 C 5.59644 25 0 19.40356 0 12.5 z" stroke-linecap="round" />
</g>
		<g transform="matrix(0.56 0 0 0.56 223.21 90.97)" id="mRHr7VVJ0W9v-TIpAmOd3"  >
<path style="stroke: none; stroke-width: 1; stroke-dasharray: none; stroke-linecap: butt; stroke-dashoffset: 0; stroke-linejoin: miter; stroke-miterlimit: 4; fill: rgb(70,195,219); fill-rule: nonzero; opacity: 1;" vector-effect="non-scaling-stroke"  transform=" translate(-13.5, -13.5)" d="M 0 13.5 C 0 6.04416 6.04416 0 13.5 0 C 20.955840000000002 0 27 6.04416 27 13.5 C 27 20.955840000000002 20.955840000000002 27 13.5 27 C 6.04416 27 0 20.955840000000002 0 13.5 z" stroke-linecap="round" />
</g>
		<g transform="matrix(0.56 0 0 0.56 223.21 90.97)" id="b5lCrisGMYhvNBpbijg0k"  >
<path style="stroke: none; stroke-width: 1; stroke-dasharray: none; stroke-linecap: butt; stroke-dashoffset: 0; stroke-linejoin: miter; stroke-miterlimit: 4; fill: rgb(70,195,219); fill-rule: nonzero; opacity: 1;" vector-effect="non-scaling-stroke"  transform=" translate(-7.5, -7.5)" d="M 0 7.5 C 0 3.3578599999999996 3.35786 0 7.5 0 C 11.642140000000001 0 15 3.35786 15 7.5 C 15 11.642140000000001 11.64214 15 7.5 15 C 3.3578599999999996 15 0 11.64214 0 7.5 z" stroke-linecap="round" />
</g>
</g>
</g>
</svg>